PathFileType	4	(X/Y/Z)	Patient4_TMGait_0pt4_02_left_05.trc.trc
DataRate	CameraRate	NumFrames	NumMarkers	Units	OrigDataRate	OrigDataStartFrame	OrigNumFrames
70.707070707071	70.707070707071	6	33	mm	70.707070707071	89	       141
Frame#	Time	Sacral			L.Shoulder			Chest			R.Shoulder			Neck			R.ASIS			L.ASIS			R.Thigh.Superior			R.Thigh.Lateral			R.Thigh.Inferior			R.Patella			L.Thigh.Superior			L.Thigh.Lateral			L.Thigh.Inferior			L.Patella			L.Shank.Superior			L.Shank.Lateral			L.Shank.Inferior			R.Shank.Superior			R.Shank.Lateral			R.Shank.Inferior			R.Heel			R.Midfoot.Superior			R.Midfoot.Lateral			R.Toe			L.Heel			L.Midfoot.Lateral			L.Midfoot.Superior			L.Toe			L.Elbow			L.Wrist			R.Elbow			R.Wrist			
		X1	Y1	Z1	X2	Y2	Z2	X3	Y3	Z3	X4	Y4	Z4	X5	Y5	Z5	X6	Y6	Z6	X7	Y7	Z7	X8	Y8	Z8	X9	Y9	Z9	X10	Y10	Z10	X11	Y11	Z11	X12	Y12	Z12	X13	Y13	Z13	X14	Y14	Z14	X15	Y15	Z15	X16	Y16	Z16	X17	Y17	Z17	X18	Y18	Z18	X19	Y19	Z19	X20	Y20	Z20	X21	Y21	Z21	X22	Y22	Z22	X23	Y23	Z23	X24	Y24	Z24	X25	Y25	Z25	X26	Y26	Z26	X27	Y27	Z27	X28	Y28	Z28	X29	Y29	Z29	X30	Y30	Z30	X31	Y31	Z31	X32	Y32	Z32	X33	Y33	Z33	

89	7.874571428571	857.904180047559	994.954355090282	461.974789040261	1020.271780499287	1431.726709573063	275.265434092599	1112.462402405374	1375.876259006494	446.722598433684	1007.348800801362	1444.326200896996	610.657543813094	985.688773223693	1494.700487770691	429.252161962422	1087.412906184090	948.980426516131	590.272647350607	1085.623962598684	966.733362448116	313.683977553800	1144.185489161735	749.284148218422	560.487740568544	1071.264744503589	635.199091644733	623.014539929023	1152.632539769771	587.141699539054	543.814437809074	1160.429707867382	498.090239629484	552.096879284421	1109.217330563070	738.813053893931	336.732144556081	1009.326016212246	630.289255903331	271.224149100321	1089.841382697865	541.713691253813	326.874168352856	1079.759324342908	460.878382227624	323.237696727170	1020.471621720890	401.653985914607	319.059976567853	888.029820355606	333.017067494846	278.465498812535	900.611505629974	204.078757261953	335.003621835591	1133.587589920621	408.562547542789	561.594275726598	1065.696822814221	305.083253897793	627.494854463727	1108.839650100309	209.066122122319	567.057616846705	980.026699214478	42.819366083971	545.486787824187	1150.604011349136	98.279761941454	577.515935094456	1064.501343054966	37.727183249618	618.809443778046	1272.020497376014	47.243125132510	604.118442703217	731.400240851609	92.203750778700	384.079834732769	796.597782616138	61.744983094596	303.631204526173	893.743303284740	103.756847922414	319.967728502946	1001.503442671170	36.720621275963	294.657315968974	1055.082752277980	1083.852772843448	150.961881622499	1240.034920153897	897.607247343996	139.130406566314	952.774723085507	1106.197102285767	742.522655005729	1082.259312826062	879.220454320188	759.462318609101	
90	7.888714285714	858.223057060526	995.215101209699	466.740053847718	1018.757649823179	1432.011502700667	278.397800010283	1112.472875228496	1376.305854143610	449.081498510995	1008.717639720932	1444.752026783980	613.850070788774	985.276326302526	1494.939925954482	432.548409656295	1088.560512114573	949.608550389217	593.440497619862	1085.213980940525	967.065440870238	316.841017842640	1143.497343802344	748.842409290382	564.216153953680	1068.864867098399	635.068692015738	625.918387141369	1149.992622557442	586.614404417185	546.884052686690	1156.565354398525	497.632432860285	554.259700077894	1113.875390026069	740.632584966992	339.557380053619	1018.351116024926	630.149334140240	272.547925715380	1101.952767741052	543.037892295999	327.589938557554	1092.975380885884	460.869146724710	322.360688260568	1031.326550356585	402.038205331861	318.329217193289	896.257068737911	338.457014732373	278.311399027179	904.738663618710	208.821333557598	333.378407506051	1129.629590966171	408.148527557513	563.335515649706	1061.476082309381	304.659072463463	628.728891669290	1104.030052750545	208.750196271007	567.734063237917	974.370290574022	42.830033502043	545.583386131076	1145.071837605545	98.122223816362	577.731127474614	1058.830763617766	37.680841468957	618.953016767451	1266.455338869149	46.728864599108	604.350419140739	731.495250754846	105.573945560586	382.555746435501	794.488792921725	70.116219443824	302.680898334290	893.675460699592	106.523093117650	318.134841250637	995.889151425675	35.880820000175	294.640526429991	1050.120601927415	1083.525155409345	154.845868383990	1225.227611610146	888.167931839454	140.927223143739	961.441921610027	1106.503963822624	748.872804467416	1102.230417110455	886.478610897862	764.118055622277	
91	7.902857142857	858.320725867045	995.328197799054	471.475549207719	1017.136928086908	1432.005886041608	281.442142651061	1112.425458394469	1376.485071920805	451.334240774356	1010.131880274431	1445.046223020552	616.944128204436	984.861652298563	1494.981313527433	435.725948871837	1089.495820047287	949.976814387525	596.528744746170	1084.353511820993	967.050485732950	320.002148263281	1142.642453558821	748.299048003367	567.698975665968	1066.555790761556	634.857611056516	628.807029529571	1147.287116930187	586.024196594249	549.778906460147	1152.707711946363	497.117612757932	556.394575453077	1118.754254394746	742.670854936355	342.269550144357	1028.083351097516	630.245785687702	273.655414926175	1114.716380114314	544.879331354715	328.271590659804	1107.042589366114	461.479820005221	321.698201581023	1043.276562280987	402.823971299014	317.675073025494	905.834725325548	344.391770174476	277.912676219089	909.978894807128	214.296969503665	331.773695831279	1125.674846477289	407.650405339343	565.073854110870	1057.244304000371	304.162923868304	629.993123650620	1099.166571256944	208.358115060986	568.400897231888	968.602754134329	42.808587940802	545.693275599718	1139.448974480520	97.913771662088	577.915267608994	1053.064739365263	37.608792552769	619.098753441899	1260.803037003052	46.169678813333	604.513186726304	732.905743041731	120.618181316908	380.857573691037	793.328167468702	80.061293131954	301.585826292055	894.402740462362	110.056457290214	316.401229195207	990.322753276981	34.871115573888	294.651519415335	1044.903741537022	1082.929615289278	158.665054284170	1209.597170455131	878.978004738995	142.817266497561	970.411047859376	1106.967239943430	755.284600021087	1122.677384096939	894.887204139230	768.422589257087	
92	7.917000000000	858.189688558851	995.290612789605	476.115183191924	1015.417761275405	1431.731620420917	284.373451636432	1112.312576125079	1376.414599016380	453.457914787482	1011.580346671213	1445.201620594500	619.915936634692	984.458503117054	1494.844271717853	438.764596973941	1090.195576595977	950.095630225071	599.494340580338	1083.033966793304	966.687110714156	323.124675977496	1141.642558217536	747.689734546547	570.824335133866	1064.440711724490	634.588889673071	631.642099263436	1144.580615738151	585.393102399585	552.420272718785	1148.935788597136	496.550949330901	558.463048226005	1123.737908249791	744.986912445364	344.869495340239	1038.304177879538	630.670640015642	274.602563641509	1127.849986542614	547.326925463777	328.980127315473	1121.700149824743	462.806483263079	321.349866988035	1056.086823128750	404.085854485054	317.207411020904	916.570500634002	350.769410142375	277.344806881146	916.235738842909	220.453447512527	330.314011623840	1121.786175776232	407.079700093435	566.780846063246	1053.066707283994	303.616034439615	631.276965587289	1094.299350215257	207.907207127664	569.052392542948	962.779971269216	42.767250635959	545.822966338543	1133.777807257964	97.685601959729	578.086182539529	1047.254445677416	37.525278259713	619.255369914640	1255.105632528994	45.613364664670	604.626723226203	735.659217474801	137.023165706580	379.062742268019	793.232483706633	91.455760982166	300.392217816369	895.942947781394	114.422782100978	314.873655419315	984.973783427228	33.721699503285	294.684237944556	1039.382028067711	1082.067165595527	162.440234155284	1193.216464666533	870.137139602573	144.839941041227	979.704002494487	1107.574505874660	761.664111372876	1143.470851038728	904.471194588957	772.298432533692	
93	7.931142857143	857.834149282160	995.120737685174	480.602431220404	1013.610160029818	1431.237972550343	287.166925481640	1112.126357582670	1376.126057747059	455.430492501713	1013.044665405287	1445.235727315349	622.739739735401	984.078911572918	1494.571425878072	441.643737295450	1090.648710940809	950.002669667110	602.300892629300	1081.280801132807	966.020774724280	326.165912559240	1140.516148859014	747.050544457159	573.545971538960	1062.546789202331	634.282398838565	634.378850470568	1141.913280746507	584.742973294324	554.773858975253	1145.296336318068	495.943201973970	560.431350868440	1128.692935305783	747.640242761181	347.375338295616	1048.744304006827	631.511134316951	275.461411106745	1141.045274795499	550.451565664433	329.767829189824	1136.647809314896	464.919276074275	321.371929622287	1069.469223243144	405.888988475887	317.009625187187	928.198972608874	357.507352623172	276.701415643833	923.379572002463	227.184631683349	329.112899361277	1117.995570647431	406.455609990839	568.427539399312	1048.972229186069	303.044597821675	632.558175237968	1089.458424605409	207.419478112418	569.681569968664	956.947488671562	42.718628177218	545.972798625266	1128.091898664416	97.462967758132	578.257352561919	1041.439413197285	37.442237890032	619.425684008961	1249.395559901369	45.096067494371	604.711859335073	739.724186890182	154.300666871388	377.272787973393	794.303892522690	104.009672564541	299.163914285919	898.328221779123	119.615585683029	313.640133158365	980.107759957174	32.509414187965	294.724979461571	1033.499886052427	1080.969560873957	166.195216582269	1176.166941466809	861.748869226456	147.045377847140	989.343331403064	1108.329844513483	767.903782431130	1164.460866986399	915.239569013346	775.668718673622	
94	7.945285714286	857.269380985127	994.859352372892	484.891537251935	1011.724311476796	1430.596775598578	289.801338847455	1111.860022514583	1375.678676665885	457.233165669895	1014.501763265524	1445.188978710101	625.391035118540	983.731483319288	1494.223207772199	444.345433190103	1090.858120754289	949.756447433301	604.920909106061	1079.154599838539	965.141086486130	329.085196878139	1139.273685429229	746.412340965264	575.877812765583	1060.828188437061	633.956336275137	636.969570605454	1139.294249727134	584.092601578395	556.845444387332	1141.795230706514	495.310317026297	562.272751582635	1133.480086216338	750.679163684526	349.816670135492	1059.107637815504	632.838094887976	276.307987786029	1153.992291111844	554.293699917235	330.668958306520	1151.566034938615	467.853539136752	321.771111508923	1083.107806213688	408.278435412835	317.126037172486	940.406158427966	364.486375186084	276.083717218254	931.268616182528	234.323556154658	328.255900473548	1114.299684057246	405.803436109102	569.987036449704	1044.953087317892	302.476751732242	633.807943919166	1084.651197785123	206.919454445448	570.281631327035	951.136264579200	42.673602374715	546.139092712853	1122.413510216721	97.263608717166	578.436976253855	1035.645088089976	37.368553188578	619.607700269022	1243.693941583570	44.640737490897	604.787225012263	745.020254095064	171.795719031372	375.603327753437	796.632199033548	117.261509855199	297.975691748881	901.619919936163	125.533969111568	312.755519751025	976.099035909226	31.356571300952	294.747804779122	1027.203328681473	1079.699187413578	169.952947447188	1158.540845680347	853.919577200595	149.491013002502	999.344263754875	1109.255844259257	773.888930790981	1185.478595365840	927.183764255244	778.460479636558	
